<?xml version="1.0" standalone="no"?>
<!DOCTYPE svg PUBLIC "-//W3C//DTD SVG 20010904//EN"
 "http://www.w3.org/TR/2001/REC-SVG-20010904/DTD/svg10.dtd">
<svg version="1.0" xmlns="http://www.w3.org/2000/svg"
 width="512.000000pt" height="512.000000pt" viewBox="0 0 512.000000 512.000000"
 preserveAspectRatio="xMidYMid meet">

<g transform="translate(0.000000,512.000000) scale(0.100000,-0.100000)"
fill="#000000" stroke="none">
<path d="M2206 5109 c-50 -12 -129 -52 -176 -89 -84 -67 -102 -107 -289 -658
l-176 -517 -530 -5 c-454 -4 -536 -7 -572 -21 -201 -78 -319 -272 -285 -471
25 -142 110 -257 239 -320 l68 -33 393 -3 c215 -2 392 -6 392 -10 0 -4 -58
-176 -128 -382 l-128 -375 -340 -5 c-290 -5 -345 -8 -384 -23 -72 -28 -123
-62 -172 -115 -198 -212 -133 -550 129 -675 l68 -32 203 -3 c111 -2 202 -5
202 -7 0 -1 -65 -196 -145 -431 -136 -403 -145 -433 -145 -505 0 -94 19 -158
69 -236 116 -179 352 -242 545 -146 65 33 146 110 179 171 15 27 106 282 203
568 97 285 182 534 190 552 l13 32 525 0 c290 0 526 -4 526 -9 0 -4 -63 -195
-141 -422 -102 -301 -142 -432 -146 -479 -28 -326 318 -561 611 -414 71 36
118 76 161 138 31 45 74 162 229 618 l192 563 524 5 525 5 68 32 c83 39 163
117 201 195 119 244 -14 534 -279 603 -48 12 -126 15 -402 15 -189 0 -343 3
-343 8 1 4 58 176 129 382 l128 375 334 5 334 5 70 34 c264 130 325 463 124
676 -100 106 -188 135 -411 135 -87 0 -158 2 -158 4 0 2 59 176 130 387 122
359 130 388 130 459 0 42 -7 99 -15 126 -23 79 -86 168 -155 218 -85 62 -144
81 -260 81 -86 0 -101 -3 -163 -32 -84 -40 -165 -116 -204 -191 -17 -31 -106
-281 -199 -554 l-168 -498 -528 0 c-290 0 -528 4 -528 8 0 5 57 175 127 378
l127 369 0 100 c1 95 -1 104 -35 175 -88 186 -288 285 -483 239z m1024 -2126
c0 -5 -57 -178 -127 -385 l-128 -378 -527 0 c-316 0 -528 4 -528 9 0 12 246
737 255 751 7 12 1055 14 1055 3z"/>
</g>
</svg>
